<svg width="156" height="60" viewBox="0 0 156 60" fill="none" xmlns="http://www.w3.org/2000/svg">
<circle cx="30" cy="13" r="13" fill="#242424"/>
<path d="M1 19.2955V14.7273H20.6705V19.2955H13.6136V38H8.06818V19.2955H1ZM21.6051 38V20.5455H27.0028V23.7273H27.1847C27.5028 22.5758 28.0218 21.7197 28.7415 21.1591C29.4612 20.5909 30.2983 20.3068 31.2528 20.3068C31.5104 20.3068 31.7756 20.3258 32.0483 20.3636C32.321 20.3939 32.5748 20.4432 32.8097 20.5114V25.3409C32.5445 25.25 32.196 25.178 31.7642 25.125C31.34 25.072 30.9612 25.0455 30.6278 25.0455C29.9688 25.0455 29.3741 25.1932 28.8438 25.4886C28.321 25.7765 27.9081 26.1818 27.6051 26.7045C27.3097 27.2197 27.1619 27.8258 27.1619 28.5227V38H21.6051ZM39.3381 38.2955C38.2244 38.2955 37.2358 38.1098 36.3722 37.7386C35.5161 37.3598 34.8381 36.7917 34.3381 36.0341C33.8456 35.2689 33.5994 34.3106 33.5994 33.1591C33.5994 32.1894 33.7699 31.3712 34.1108 30.7045C34.4517 30.0379 34.9214 29.4962 35.5199 29.0795C36.1184 28.6629 36.8078 28.3485 37.5881 28.1364C38.3684 27.9167 39.2017 27.7689 40.0881 27.6932C41.0805 27.6023 41.8797 27.5076 42.4858 27.4091C43.0919 27.303 43.5313 27.1553 43.804 26.9659C44.0843 26.7689 44.2244 26.4924 44.2244 26.1364V26.0795C44.2244 25.4962 44.0237 25.0455 43.6222 24.7273C43.2206 24.4091 42.679 24.25 41.9972 24.25C41.2623 24.25 40.6714 24.4091 40.2244 24.7273C39.7775 25.0455 39.4934 25.4848 39.3722 26.0455L34.2472 25.8636C34.3987 24.803 34.7888 23.8561 35.4176 23.0227C36.054 22.1818 36.9252 21.5227 38.0312 21.0455C39.1449 20.5606 40.482 20.3182 42.0426 20.3182C43.1563 20.3182 44.1828 20.4508 45.1222 20.7159C46.0616 20.9735 46.8797 21.3523 47.5767 21.8523C48.2737 22.3447 48.8116 22.9508 49.1903 23.6705C49.5767 24.3902 49.7699 25.2121 49.7699 26.1364V38H44.5426V35.5682H44.4062C44.0956 36.1591 43.6979 36.6591 43.2131 37.0682C42.7358 37.4773 42.1714 37.7841 41.5199 37.9886C40.8759 38.1932 40.1487 38.2955 39.3381 38.2955ZM41.054 34.6591C41.6525 34.6591 42.1903 34.5379 42.6676 34.2955C43.1525 34.053 43.5388 33.7197 43.8267 33.2955C44.1146 32.8636 44.2585 32.3636 44.2585 31.7955V30.1364C44.0994 30.2197 43.9063 30.2955 43.679 30.3636C43.4593 30.4318 43.2169 30.4962 42.9517 30.5568C42.6866 30.6174 42.4138 30.6705 42.1335 30.7159C41.8532 30.7614 41.5843 30.803 41.3267 30.8409C40.804 30.9242 40.357 31.053 39.9858 31.2273C39.6222 31.4015 39.3419 31.6288 39.1449 31.9091C38.9555 32.1818 38.8608 32.5076 38.8608 32.8864C38.8608 33.4621 39.0653 33.9015 39.4744 34.2045C39.8911 34.5076 40.4176 34.6591 41.054 34.6591ZM69.4744 20.5455L63.4858 38H57.1222L51.1449 20.5455H56.9972L60.2131 32.5682H60.3949L63.6222 20.5455H69.4744ZM79.2017 38.3295C77.3759 38.3295 75.8002 37.9697 74.4744 37.25C73.1563 36.5227 72.1411 35.4886 71.429 34.1477C70.7244 32.7992 70.3722 31.197 70.3722 29.3409C70.3722 27.5379 70.7282 25.9621 71.4403 24.6136C72.1525 23.2576 73.1562 22.2045 74.4517 21.4545C75.7472 20.697 77.2737 20.3182 79.0312 20.3182C80.2737 20.3182 81.41 20.5114 82.4403 20.8977C83.4706 21.2841 84.3608 21.8561 85.1108 22.6136C85.8608 23.3712 86.4441 24.3068 86.8608 25.4205C87.2775 26.5265 87.4858 27.7955 87.4858 29.2273V30.6136H72.3153V27.3864H82.3153C82.3078 26.7955 82.1676 26.2689 81.8949 25.8068C81.6222 25.3447 81.2472 24.9848 80.7699 24.7273C80.3002 24.4621 79.7585 24.3295 79.1449 24.3295C78.5237 24.3295 77.9669 24.4697 77.4744 24.75C76.982 25.0227 76.5919 25.3977 76.304 25.875C76.0161 26.3447 75.8646 26.8788 75.8494 27.4773V30.7614C75.8494 31.4735 75.9896 32.0985 76.2699 32.6364C76.5502 33.1667 76.9479 33.5795 77.4631 33.875C77.9782 34.1705 78.5919 34.3182 79.304 34.3182C79.7964 34.3182 80.2434 34.25 80.6449 34.1136C81.0464 33.9773 81.3911 33.7765 81.679 33.5114C81.9669 33.2462 82.1828 32.9205 82.3267 32.5341L87.429 32.6818C87.2169 33.8258 86.7509 34.822 86.0312 35.6705C85.3191 36.5114 84.3835 37.1667 83.2244 37.6364C82.0653 38.0985 80.7244 38.3295 79.2017 38.3295ZM95.8807 14.7273V38H90.3239V14.7273H95.8807Z" fill="white"/>
<path d="M99.4176 38V14.7273H115.304V19.2955H105.043V24.0682H114.293V28.6477H105.043V38H99.4176ZM128.304 30.4659V20.5455H133.849V38H128.554V34.75H128.372C127.986 35.8182 127.327 36.6667 126.395 37.2955C125.471 37.9167 124.353 38.2273 123.043 38.2273C121.853 38.2273 120.808 37.9545 119.906 37.4091C119.005 36.8636 118.304 36.1023 117.804 35.125C117.304 34.1402 117.05 32.9886 117.043 31.6705V20.5455H122.599V30.5795C122.607 31.5265 122.857 32.2727 123.349 32.8182C123.842 33.3636 124.512 33.6364 125.361 33.6364C125.914 33.6364 126.41 33.5152 126.849 33.2727C127.296 33.0227 127.649 32.6629 127.906 32.1932C128.171 31.7159 128.304 31.1402 128.304 30.4659ZM142.943 28.0455V38H137.386V20.5455H142.67V23.75H142.864C143.25 22.6818 143.909 21.8447 144.841 21.2386C145.773 20.625 146.883 20.3182 148.17 20.3182C149.398 20.3182 150.462 20.5947 151.364 21.1477C152.273 21.6932 152.977 22.4583 153.477 23.4432C153.985 24.4205 154.235 25.5644 154.227 26.875V38H148.67V27.9659C148.678 26.9962 148.432 26.2386 147.932 25.6932C147.439 25.1477 146.754 24.875 145.875 24.875C145.292 24.875 144.777 25.0038 144.33 25.2614C143.89 25.5114 143.549 25.8712 143.307 26.3409C143.072 26.8106 142.951 27.3788 142.943 28.0455Z" fill="#242424"/>
<path d="M7.48438 50.0391V49H13.6758V50.0391H11.1797V57H9.97656V50.0391H7.48438ZM14.3271 57V51H15.4561V51.9531H15.5186C15.6279 51.6302 15.8206 51.3763 16.0967 51.1914C16.3753 51.0039 16.6904 50.9102 17.042 50.9102C17.1149 50.9102 17.2008 50.9128 17.2998 50.918C17.4014 50.9232 17.4808 50.9297 17.5381 50.9375V52.0547C17.4912 52.0417 17.4079 52.0273 17.2881 52.0117C17.1683 51.9935 17.0485 51.9844 16.9287 51.9844C16.6527 51.9844 16.4066 52.043 16.1904 52.1602C15.9769 52.2747 15.8076 52.4349 15.6826 52.6406C15.5576 52.8437 15.4951 53.0755 15.4951 53.3359V57H14.3271ZM20.2412 57.1328C19.861 57.1328 19.5173 57.0625 19.21 56.9219C18.9027 56.7786 18.6592 56.5716 18.4795 56.3008C18.3024 56.0299 18.2139 55.6979 18.2139 55.3047C18.2139 54.9661 18.279 54.6875 18.4092 54.4687C18.5394 54.25 18.7152 54.0768 18.9365 53.9492C19.1579 53.8216 19.4053 53.7253 19.6787 53.6602C19.9521 53.5951 20.2308 53.5456 20.5146 53.5117C20.874 53.4701 21.1657 53.4362 21.3896 53.4102C21.6136 53.3815 21.7764 53.3359 21.8779 53.2734C21.9795 53.2109 22.0303 53.1094 22.0303 52.9687V52.9414C22.0303 52.6003 21.9339 52.3359 21.7412 52.1484C21.5511 51.9609 21.2673 51.8672 20.8896 51.8672C20.4964 51.8672 20.1865 51.9544 19.96 52.1289C19.736 52.3008 19.5811 52.4922 19.4951 52.7031L18.3975 52.4531C18.5277 52.0885 18.7178 51.7943 18.9678 51.5703C19.2204 51.3437 19.5107 51.1797 19.8389 51.0781C20.167 50.974 20.512 50.9219 20.874 50.9219C21.1136 50.9219 21.3675 50.9505 21.6357 51.0078C21.9066 51.0625 22.1592 51.1641 22.3936 51.3125C22.6305 51.4609 22.8245 51.6732 22.9756 51.9492C23.1266 52.2227 23.2021 52.5781 23.2021 53.0156V57H22.0615V56.1797H22.0146C21.9391 56.3307 21.8258 56.4792 21.6748 56.625C21.5238 56.7708 21.3298 56.8919 21.0928 56.9883C20.8558 57.0846 20.5719 57.1328 20.2412 57.1328ZM20.4951 56.1953C20.818 56.1953 21.0941 56.1315 21.3232 56.0039C21.555 55.8763 21.7308 55.7096 21.8506 55.5039C21.973 55.2956 22.0342 55.0729 22.0342 54.8359V54.0625C21.9925 54.1042 21.9118 54.1432 21.792 54.1797C21.6748 54.2135 21.5407 54.2435 21.3896 54.2695C21.2386 54.293 21.0915 54.3151 20.9482 54.3359C20.805 54.3542 20.6852 54.3698 20.5889 54.3828C20.3623 54.4115 20.1553 54.4596 19.9678 54.5273C19.7829 54.5951 19.6344 54.6927 19.5225 54.8203C19.4131 54.9453 19.3584 55.112 19.3584 55.3203C19.3584 55.6094 19.4652 55.8281 19.6787 55.9766C19.8923 56.1224 20.1644 56.1953 20.4951 56.1953ZM29.6758 51L27.5 57H26.25L24.0703 51H25.3242L26.8438 55.6172H26.9063L28.4219 51H29.6758ZM33.1553 57.1211C32.5641 57.1211 32.055 56.9948 31.6279 56.7422C31.2035 56.487 30.8753 56.1289 30.6436 55.668C30.4144 55.2044 30.2998 54.6615 30.2998 54.0391C30.2998 53.4245 30.4144 52.8828 30.6436 52.4141C30.8753 51.9453 31.1982 51.5794 31.6123 51.3164C32.029 51.0534 32.516 50.9219 33.0732 50.9219C33.4118 50.9219 33.7399 50.9779 34.0576 51.0898C34.3753 51.2018 34.6605 51.3776 34.9131 51.6172C35.1657 51.8568 35.3649 52.168 35.5107 52.5508C35.6566 52.931 35.7295 53.3932 35.7295 53.9375V54.3516H30.96V53.4766H34.585C34.585 53.1693 34.5225 52.8971 34.3975 52.6602C34.2725 52.4206 34.0967 52.2318 33.8701 52.0937C33.6462 51.9557 33.3831 51.8867 33.0811 51.8867C32.7529 51.8867 32.4665 51.9674 32.2217 52.1289C31.9795 52.2878 31.792 52.4961 31.6592 52.7539C31.529 53.0091 31.4639 53.2865 31.4639 53.5859V54.2695C31.4639 54.6706 31.5342 55.0117 31.6748 55.293C31.818 55.5742 32.0173 55.7891 32.2725 55.9375C32.5277 56.0833 32.8258 56.1562 33.167 56.1562C33.3883 56.1562 33.5902 56.125 33.7725 56.0625C33.9548 55.9974 34.1123 55.901 34.2451 55.7734C34.3779 55.6458 34.4795 55.4883 34.5498 55.3008L35.6553 55.5C35.5667 55.8255 35.4079 56.1107 35.1787 56.3555C34.9521 56.5977 34.667 56.7865 34.3232 56.9219C33.9821 57.0547 33.5928 57.1211 33.1553 57.1211ZM38.1934 49V57H37.0254V49H38.1934ZM39.7646 57V51H40.9326V57H39.7646ZM40.3545 50.0742C40.1514 50.0742 39.9769 50.0065 39.8311 49.8711C39.6878 49.7331 39.6162 49.569 39.6162 49.3789C39.6162 49.1862 39.6878 49.0221 39.8311 48.8867C39.9769 48.7487 40.1514 48.6797 40.3545 48.6797C40.5576 48.6797 40.7308 48.7487 40.874 48.8867C41.0199 49.0221 41.0928 49.1862 41.0928 49.3789C41.0928 49.569 41.0199 49.7331 40.874 49.8711C40.7308 50.0065 40.5576 50.0742 40.3545 50.0742ZM43.6719 53.4375V57H42.5039V51H43.625V51.9766H43.6992C43.8372 51.6589 44.0534 51.4036 44.3477 51.2109C44.6445 51.0182 45.0182 50.9219 45.4688 50.9219C45.8776 50.9219 46.2357 51.0078 46.543 51.1797C46.8503 51.349 47.0885 51.6016 47.2578 51.9375C47.4271 52.2734 47.5117 52.6888 47.5117 53.1836V57H46.3438V53.3242C46.3438 52.8893 46.2305 52.5495 46.0039 52.3047C45.7773 52.0573 45.4661 51.9336 45.0703 51.9336C44.7995 51.9336 44.5586 51.9922 44.3477 52.1094C44.1393 52.2266 43.974 52.3984 43.8516 52.625C43.7318 52.849 43.6719 53.1198 43.6719 53.4375ZM51.5938 59.375C51.1172 59.375 50.707 59.3125 50.3633 59.1875C50.0221 59.0625 49.7435 58.8971 49.5273 58.6914C49.3112 58.4857 49.1497 58.2604 49.043 58.0156L50.0469 57.6016C50.1172 57.7161 50.2109 57.8372 50.3281 57.9648C50.4479 58.0951 50.6094 58.2057 50.8125 58.2969C51.0182 58.388 51.2826 58.4336 51.6055 58.4336C52.0482 58.4336 52.4141 58.3255 52.7031 58.1094C52.9922 57.8958 53.1367 57.5547 53.1367 57.0859V55.9062H53.0625C52.9922 56.0339 52.8906 56.1758 52.7578 56.332C52.6276 56.4883 52.4479 56.6237 52.2188 56.7383C51.9896 56.8529 51.6914 56.9102 51.3242 56.9102C50.8503 56.9102 50.4232 56.7995 50.043 56.5781C49.6654 56.3542 49.3659 56.0247 49.1445 55.5898C48.9258 55.1523 48.8164 54.6146 48.8164 53.9766C48.8164 53.3385 48.9245 52.7917 49.1406 52.3359C49.3594 51.8802 49.6589 51.5312 50.0391 51.2891C50.4193 51.0443 50.8503 50.9219 51.332 50.9219C51.7044 50.9219 52.0052 50.9844 52.2344 51.1094C52.4635 51.2318 52.6419 51.375 52.7695 51.5391C52.8997 51.7031 53 51.8477 53.0703 51.9727H53.1563V51H54.3008V57.1328C54.3008 57.6484 54.181 58.0716 53.9414 58.4023C53.7018 58.7331 53.3776 58.9779 52.9688 59.1367C52.5625 59.2956 52.1042 59.375 51.5938 59.375ZM51.582 55.9414C51.918 55.9414 52.2018 55.8633 52.4336 55.707C52.668 55.5482 52.8451 55.3216 52.9648 55.0273C53.0872 54.7305 53.1484 54.375 53.1484 53.9609C53.1484 53.5573 53.0885 53.2018 52.9688 52.8945C52.849 52.5872 52.6732 52.3477 52.4414 52.1758C52.2096 52.0013 51.9232 51.9141 51.582 51.9141C51.2305 51.9141 50.9375 52.0052 50.7031 52.1875C50.4688 52.3672 50.2917 52.612 50.1719 52.9219C50.0547 53.2318 49.9961 53.5781 49.9961 53.9609C49.9961 54.3542 50.056 54.6992 50.1758 54.9961C50.2956 55.293 50.4727 55.5247 50.707 55.6914C50.944 55.8581 51.2357 55.9414 51.582 55.9414ZM65.3291 49V57H64.2197L60.1533 51.1328H60.0791V57H58.8721V49H59.9893L64.0596 54.875H64.1338V49H65.3291ZM69.5234 57.1211C68.9609 57.1211 68.4701 56.9922 68.0508 56.7344C67.6315 56.4766 67.306 56.1159 67.0742 55.6523C66.8424 55.1888 66.7266 54.6471 66.7266 54.0273C66.7266 53.4049 66.8424 52.8607 67.0742 52.3945C67.306 51.9284 67.6315 51.5664 68.0508 51.3086C68.4701 51.0508 68.9609 50.9219 69.5234 50.9219C70.0859 50.9219 70.5768 51.0508 70.9961 51.3086C71.4154 51.5664 71.7409 51.9284 71.9727 52.3945C72.2044 52.8607 72.3203 53.4049 72.3203 54.0273C72.3203 54.6471 72.2044 55.1888 71.9727 55.6523C71.7409 56.1159 71.4154 56.4766 70.9961 56.7344C70.5768 56.9922 70.0859 57.1211 69.5234 57.1211ZM69.5273 56.1406C69.8919 56.1406 70.194 56.0443 70.4336 55.8516C70.6732 55.6589 70.8503 55.4023 70.9648 55.082C71.082 54.7617 71.1406 54.4089 71.1406 54.0234C71.1406 53.6406 71.082 53.2891 70.9648 52.9687C70.8503 52.6458 70.6732 52.3867 70.4336 52.1914C70.194 51.9961 69.8919 51.8984 69.5273 51.8984C69.1602 51.8984 68.8555 51.9961 68.6133 52.1914C68.3737 52.3867 68.1953 52.6458 68.0781 52.9687C67.9635 53.2891 67.9063 53.6406 67.9063 54.0234C67.9063 54.4089 67.9635 54.7617 68.0781 55.082C68.1953 55.4023 68.3737 55.6589 68.6133 55.8516C68.8555 56.0443 69.1602 56.1406 69.5273 56.1406ZM74.7422 57L72.9766 51H74.1836L75.3594 55.4062H75.418L76.5977 51H77.8047L78.9766 55.3867H79.0352L80.2031 51H81.4102L79.6484 57H78.457L77.2383 52.668H77.1484L75.9297 57H74.7422ZM85.5234 57V49H86.7305V52.4766H90.7188V49H91.9297V57H90.7188V53.5117H86.7305V57H85.5234ZM95.3398 57.1328C94.9596 57.1328 94.6159 57.0625 94.3086 56.9219C94.0013 56.7786 93.7578 56.5716 93.5781 56.3008C93.401 56.0299 93.3125 55.6979 93.3125 55.3047C93.3125 54.9661 93.3776 54.6875 93.5078 54.4687C93.638 54.25 93.8138 54.0768 94.0352 53.9492C94.2565 53.8216 94.5039 53.7253 94.7773 53.6602C95.0508 53.5951 95.3294 53.5456 95.6133 53.5117C95.9727 53.4701 96.2643 53.4362 96.4883 53.4102C96.7122 53.3815 96.875 53.3359 96.9766 53.2734C97.0781 53.2109 97.1289 53.1094 97.1289 52.9687V52.9414C97.1289 52.6003 97.0326 52.3359 96.8398 52.1484C96.6497 51.9609 96.3659 51.8672 95.9883 51.8672C95.5951 51.8672 95.2852 51.9544 95.0586 52.1289C94.8346 52.3008 94.6797 52.4922 94.5938 52.7031L93.4961 52.4531C93.6263 52.0885 93.8164 51.7943 94.0664 51.5703C94.319 51.3437 94.6094 51.1797 94.9375 51.0781C95.2656 50.974 95.6107 50.9219 95.9727 50.9219C96.2122 50.9219 96.4661 50.9505 96.7344 51.0078C97.0052 51.0625 97.2578 51.1641 97.4922 51.3125C97.7292 51.4609 97.9232 51.6732 98.0742 51.9492C98.2253 52.2227 98.3008 52.5781 98.3008 53.0156V57H97.1602V56.1797H97.1133C97.0378 56.3307 96.9245 56.4792 96.7734 56.625C96.6224 56.7708 96.4284 56.8919 96.1914 56.9883C95.9544 57.0846 95.6706 57.1328 95.3398 57.1328ZM95.5938 56.1953C95.9167 56.1953 96.1927 56.1315 96.4219 56.0039C96.6536 55.8763 96.8294 55.7096 96.9492 55.5039C97.0716 55.2956 97.1328 55.0729 97.1328 54.8359V54.0625C97.0911 54.1042 97.0104 54.1432 96.8906 54.1797C96.7734 54.2135 96.6393 54.2435 96.4883 54.2695C96.3372 54.293 96.1901 54.3151 96.0469 54.3359C95.9036 54.3542 95.7839 54.3698 95.6875 54.3828C95.4609 54.4115 95.2539 54.4596 95.0664 54.5273C94.8815 54.5951 94.7331 54.6927 94.6211 54.8203C94.5117 54.9453 94.457 55.112 94.457 55.3203C94.457 55.6094 94.5638 55.8281 94.7773 55.9766C94.9909 56.1224 95.263 56.1953 95.5938 56.1953ZM104.774 51L102.599 57H101.349L99.1689 51H100.423L101.942 55.6172H102.005L103.521 51H104.774ZM108.254 57.1211C107.663 57.1211 107.154 56.9948 106.727 56.7422C106.302 56.487 105.974 56.1289 105.742 55.668C105.513 55.2044 105.398 54.6615 105.398 54.0391C105.398 53.4245 105.513 52.8828 105.742 52.4141C105.974 51.9453 106.297 51.5794 106.711 51.3164C107.128 51.0534 107.615 50.9219 108.172 50.9219C108.51 50.9219 108.839 50.9779 109.156 51.0898C109.474 51.2018 109.759 51.3776 110.012 51.6172C110.264 51.8568 110.464 52.168 110.609 52.5508C110.755 52.931 110.828 53.3932 110.828 53.9375V54.3516H106.059V53.4766H109.684C109.684 53.1693 109.621 52.8971 109.496 52.6602C109.371 52.4206 109.195 52.2318 108.969 52.0937C108.745 51.9557 108.482 51.8867 108.18 51.8867C107.852 51.8867 107.565 51.9674 107.32 52.1289C107.078 52.2878 106.891 52.4961 106.758 52.7539C106.628 53.0091 106.563 53.2865 106.563 53.5859V54.2695C106.563 54.6706 106.633 55.0117 106.773 55.293C106.917 55.5742 107.116 55.7891 107.371 55.9375C107.626 56.0833 107.924 56.1562 108.266 56.1562C108.487 56.1562 108.689 56.125 108.871 56.0625C109.053 55.9974 109.211 55.901 109.344 55.7734C109.477 55.6458 109.578 55.4883 109.648 55.3008L110.754 55.5C110.665 55.8255 110.507 56.1107 110.277 56.3555C110.051 56.5977 109.766 56.7865 109.422 56.9219C109.081 57.0547 108.691 57.1211 108.254 57.1211ZM115.129 57V49H120.09V50.0391H116.336V52.4766H119.734V53.5117H116.336V57H115.129ZM124.905 54.5117V51H126.077V57H124.929V55.9609H124.866C124.728 56.2813 124.507 56.5482 124.202 56.7617C123.9 56.9727 123.524 57.0781 123.073 57.0781C122.688 57.0781 122.347 56.9935 122.05 56.8242C121.756 56.6523 121.524 56.3984 121.354 56.0625C121.188 55.7266 121.104 55.3112 121.104 54.8164V51H122.272V54.6758C122.272 55.0846 122.386 55.4102 122.612 55.6523C122.839 55.8945 123.133 56.0156 123.495 56.0156C123.714 56.0156 123.931 55.9609 124.147 55.8516C124.366 55.7422 124.547 55.5768 124.69 55.3555C124.836 55.1341 124.908 54.8529 124.905 54.5117ZM128.814 53.4375V57H127.646V51H128.768V51.9766H128.842C128.98 51.6589 129.196 51.4036 129.49 51.2109C129.787 51.0182 130.161 50.9219 130.611 50.9219C131.02 50.9219 131.378 51.0078 131.686 51.1797C131.993 51.349 132.231 51.6016 132.4 51.9375C132.57 52.2734 132.654 52.6888 132.654 53.1836V57H131.486V53.3242C131.486 52.8893 131.373 52.5495 131.146 52.3047C130.92 52.0573 130.609 51.9336 130.213 51.9336C129.942 51.9336 129.701 51.9922 129.49 52.1094C129.282 52.2266 129.117 52.3984 128.994 52.625C128.874 52.849 128.814 53.1198 128.814 53.4375Z" fill="white"/>
</svg>
